<svg id="Layer_1" data-name="Layer 1" xmlns="http://www.w3.org/2000/svg" viewBox="0 0 130 75"><defs><style>.cls-1{fill:#fbb040;}</style></defs><rect width="130" height="75"/><path class="cls-1" d="M84,18.91a20.47,20.47,0,0,1,1.36,4.3,22.06,22.06,0,0,1,.4,6.68,20.67,20.67,0,0,1-13,17.64,23.47,23.47,0,0,1-6.23,1.58,21.54,21.54,0,0,1-12.24-2.24l-.1-.09c0-.31.28-.48.47-.69s.45-.35.47-.68l.13.05a.11.11,0,0,0,.14.08l.55.23a19.83,19.83,0,0,0,6.14,1.61,20.82,20.82,0,0,0,9.15-1.19,18.67,18.67,0,0,0,10.81-9.67c.06-.12.13-.23.19-.34l0,0v0c0-.1.07-.21.11-.31A20.61,20.61,0,0,0,84,29.33a21.68,21.68,0,0,0-.65-6.9c-.23-.88-.55-1.73-.83-2.59a.56.56,0,0,0,.38-.21c.16-.15.32-.29.46-.45A.8.8,0,0,1,84,18.91Z"/><path class="cls-1" d="M44.64,36.63a14.48,14.48,0,0,1-1.13-3.11,20.24,20.24,0,0,1-.68-6.66A21.39,21.39,0,0,1,48,14.08a25.46,25.46,0,0,1,3.5-3.54,20.22,20.22,0,0,1,8.41-4.1A21.46,21.46,0,0,1,74,8.26l.45.27c0,.26-.24.41-.4.59a3.07,3.07,0,0,0-.69.79l-.12-.05A19.88,19.88,0,0,0,66,7.8,19.51,19.51,0,0,0,60.81,8a18.31,18.31,0,0,0-7.6,3.31,23.63,23.63,0,0,0-3.36,3.12,19.88,19.88,0,0,0-5.34,12.45A19.56,19.56,0,0,0,45,32.72a27.67,27.67,0,0,0,1,3l-.81.75A.79.79,0,0,1,44.64,36.63Z"/><path class="cls-1" d="M86.89,57a4.67,4.67,0,0,1-2.84,1.58,6.11,6.11,0,0,1-3.33-.32l-.41-.16c-.19.11-.22.31-.29.46a4.8,4.8,0,0,1-4.32,2.84,6.4,6.4,0,0,1-5.22-2.16A5,5,0,0,1,69.12,55a9.15,9.15,0,0,1,.63-2.36A6.24,6.24,0,0,1,74,48.79a5.47,5.47,0,0,1,1.75-.32.53.53,0,0,0,.47-.07,10.48,10.48,0,0,1,2,0,.6.6,0,0,0,.35.59,4.08,4.08,0,0,1,.69.62.61.61,0,0,1,.15.43.49.49,0,0,0-.5.25A5.85,5.85,0,0,0,78.15,52a3.85,3.85,0,0,0,1.58,3.94c.21-.18.21-.47.37-.68.19.09.34.27.57.28l0,.72c0,.31,0,.32.27.44a5.58,5.58,0,0,0,1.51.38.88.88,0,0,0,.82,0,4.11,4.11,0,0,0,2.12-.87c.1-.09.21-.16.31-.24a.89.89,0,0,1,.34.16A4.85,4.85,0,0,1,86.89,57Zm-9.63-6.91a.4.4,0,0,0-.33-.06,8.84,8.84,0,0,0-3.66,1.09,6,6,0,0,0-2.44,2.57,3.69,3.69,0,0,0,.27,3.91,4.71,4.71,0,0,0,3.19,2.07A4.22,4.22,0,0,0,79,57.34a1.62,1.62,0,0,0-.19-.18c-.08-.08-.17-.14-.26-.22a5.16,5.16,0,0,1-1.78-4.06,7.94,7.94,0,0,1,.36-2.16A1.67,1.67,0,0,0,77.26,50.11Z"/><path class="cls-1" d="M92.75,47.28a4,4,0,0,1,1.06.38c.5.22,1,.44,1.5.71a55.53,55.53,0,0,0,8.9,3.83,27.36,27.36,0,0,0,3.31,1,16.89,16.89,0,0,0,2.57.34,33,33,0,0,0,7.54-.6A66.63,66.63,0,0,0,128,50l.73-.25a2.09,2.09,0,0,1-.64.42A38.45,38.45,0,0,1,117.74,54a47.89,47.89,0,0,1-6.31.88,21.63,21.63,0,0,1-8.26-1.07c-1.79-.6-3.51-1.36-5.24-2.12l-2.3-1a.9.9,0,0,1-.39-.22c.1-.1.17-.22.06-.34a7.48,7.48,0,0,0-.89-.89A15.34,15.34,0,0,1,93,47.81a2.55,2.55,0,0,1-.26-.3A.17.17,0,0,1,92.75,47.28Z"/><path class="cls-1" d="M86.89,57a4.85,4.85,0,0,0-.88-.93.89.89,0,0,0-.34-.16c.1-.12.19-.25.29-.36a8.34,8.34,0,0,0,1.43-2.38c-.1-.08-.18-.16-.27-.22a17.26,17.26,0,0,0-4.86-2.37A21.49,21.49,0,0,0,79.41,50a.61.61,0,0,0-.15-.43,4.08,4.08,0,0,0-.69-.62.6.6,0,0,1-.35-.59c.09-.1.19-.19.27-.29a6.82,6.82,0,0,1,3.73-2.26,7.48,7.48,0,0,1,2.36-.26c-.17.15-.39.07-.57.13a.16.16,0,0,0-.09.26,3.72,3.72,0,0,0,.86.82.71.71,0,0,1,.38.59c-.59.07-1.19.06-1.78.17a7.55,7.55,0,0,0-2.32.77,2.53,2.53,0,0,0-.27.18.09.09,0,0,0,0,.16,1.21,1.21,0,0,0,.25.08A17.69,17.69,0,0,1,87,51l.75.43a.42.42,0,0,0,.12,0c.22-.14.1-.42.26-.59.21.08.16.26.15.39a.71.71,0,0,0,.5.76c.7.33,1.38.69,2.07,1a2.53,2.53,0,0,1,.27.18c-.07.09-.12.18,0,.29s.15.17.22.25c.31.34.7.6,1,.91.6.55,1.16,1.14,1.74,1.72a.75.75,0,0,1,.25.45,1.5,1.5,0,0,1-.61-.22,37,37,0,0,1-4.87-2.55c-.7-.43-.59-.32-.71.28a5.82,5.82,0,0,1-1,2.36C87.08,56.85,87,57,86.89,57Z"/><path class="cls-1" d="M118.66,68c0,.16.09.16.16.2a2,2,0,0,1,.72.85L120.83,72c.07.16,0,.24-.19.24s-.57,0-.86,0a.45.45,0,0,1-.51-.32c-.32-.77-.66-1.54-1-2.32l-.24-.54a1.15,1.15,0,0,0-1-.72l-.2,0-2.06,0c-.16,0-.23.09-.23.25,0,.67,0,1.33,0,2,0,.38,0,.76,0,1.14,0,.55.06.56-.52.56-1,0-.84.15-.84-.83,0-2.62,0-5.23,0-7.85,0-.18,0-.35,0-.53a.19.19,0,0,1,.21-.2h3.85a4.11,4.11,0,0,1,1.31.18,2.39,2.39,0,0,1,1.74,2.33,4.68,4.68,0,0,1,0,.53,2.35,2.35,0,0,1-1.18,1.9C119,67.86,118.81,67.94,118.66,68Zm-4.07-2.45h0c0,.45,0,.89,0,1.33,0,.27,0,.32.29.32.76,0,1.51,0,2.26,0a2.41,2.41,0,0,0,1-.23,1.69,1.69,0,0,0,.43-2.56,1.33,1.33,0,0,0-.49-.33,2.5,2.5,0,0,0-.64-.16c-.89,0-1.77,0-2.65,0-.17,0-.22.11-.22.26Z"/><path class="cls-1" d="M26.85,67.5a5.87,5.87,0,0,1-.27,1.94,4,4,0,0,1-3.88,2.89,5.88,5.88,0,0,1-1.39-.1,3.8,3.8,0,0,1-2.86-2.44,6.18,6.18,0,0,1,0-4.61,3.82,3.82,0,0,1,3.23-2.44,5.23,5.23,0,0,1,1.72,0A4,4,0,0,1,26.69,66,5.6,5.6,0,0,1,26.85,67.5Zm-1.42,0a5.36,5.36,0,0,0-.37-2,3,3,0,0,0-4.47-1,2.53,2.53,0,0,0-.62.76,4,4,0,0,0-.34.87,6.67,6.67,0,0,0-.08,2.44,3.43,3.43,0,0,0,.38,1.2,2.46,2.46,0,0,0,1.58,1.32,3.59,3.59,0,0,0,1.84,0,2.66,2.66,0,0,0,1.84-1.85A5.43,5.43,0,0,0,25.43,67.49Z"/><path class="cls-1" d="M45.35,45.57a7.47,7.47,0,0,1,6.07,2.49.73.73,0,0,0,.55.31.39.39,0,0,0,0,.38c.24.42.47.85.7,1.27a1,1,0,0,0,.1.45A8.63,8.63,0,0,1,53.13,52a5.31,5.31,0,0,1-1.76,5c-.15.13-.29.27-.43.41l-.9.52a.57.57,0,0,0-.23.3c-.17-.14-.34,0-.5,0a6.1,6.1,0,0,1-1.79.44,4.64,4.64,0,0,1-2.44-.34,2.68,2.68,0,0,0,.14-1c0-.23,0-.47,0-.71a1.27,1.27,0,0,1,.18.06,4.21,4.21,0,0,0,2.52.3,2.92,2.92,0,0,0,1.42-.49,1.62,1.62,0,0,0,.81-.55c.06,0,.14,0,.18-.06a4.06,4.06,0,0,0,1.54-3.18A4.48,4.48,0,0,0,51,50.18c-.07-.11-.19-.12-.28-.17s0-.19-.06-.25a3.23,3.23,0,0,0-1.33-1.15,2.22,2.22,0,0,0-.83-.51,8.88,8.88,0,0,0-2.73-.67l-.39,0C45.34,46.78,45.35,46.18,45.35,45.57Z"/><path class="cls-1" d="M9.11,72.15V63.44c0-.14,0-.27,0-.4s.08-.2.21-.2h3.86a4,4,0,0,1,1.24.17,2.38,2.38,0,0,1,1.78,2.24,4.45,4.45,0,0,1,0,.73,2.24,2.24,0,0,1-1.14,1.77l-.47.25c-.06.1-.05.14,0,.17a2.26,2.26,0,0,1,1,1.15c.35.84.73,1.67,1.09,2.5a2.85,2.85,0,0,1,.12.31,4.68,4.68,0,0,1-1.32.09.27.27,0,0,1-.19-.17c-.05-.12-.1-.24-.16-.36-.36-.84-.73-1.67-1.08-2.51a1.25,1.25,0,0,0-1.21-.87H10.72c-.19,0-.25.07-.26.3V72.1A2.31,2.31,0,0,1,9.11,72.15ZM12,63.91H10.71a.23.23,0,0,0-.25.25c0,.94,0,1.87,0,2.8,0,.2.07.27.29.27.79,0,1.59,0,2.39,0a2.06,2.06,0,0,0,.9-.22,1.38,1.38,0,0,0,.81-1.13,1.56,1.56,0,0,0-1.56-1.94l-.33,0Z"/><path class="cls-1" d="M45.31,62.89v9.26a3.47,3.47,0,0,1-1.2,0,.18.18,0,0,1-.12-.12,3.7,3.7,0,0,1,0-.47V68.75c0-.18,0-.35,0-.53a.18.18,0,0,0-.17-.17H38.86a.21.21,0,0,0-.21.21c0,.18,0,.36,0,.53v2.8c0,.15,0,.31,0,.46a.18.18,0,0,1-.17.17h-.33c-1,0-.86.12-.86-.84V63.13c0-.26,0-.29.33-.3h.86a.17.17,0,0,1,.17.17c0,.15,0,.31,0,.46V66.2c0,.15,0,.31,0,.46a.21.21,0,0,0,.21.21h4.52a2.61,2.61,0,0,0,.4,0,.18.18,0,0,0,.17-.17c0-.18,0-.36,0-.53,0-1,0-2,0-3,0-.31,0-.33.34-.33A2.83,2.83,0,0,1,45.31,62.89Z"/><path class="cls-1" d="M27.23,57.16a21.34,21.34,0,0,0,3.94-.87c1.1-.4,2.21-.8,3.3-1.22a60.08,60.08,0,0,0,6.63-3l.37-.16a7.1,7.1,0,0,0,0,1,6.54,6.54,0,0,1,.09.89A36.23,36.23,0,0,1,32,58.14a20.33,20.33,0,0,1-4.44.76,2.55,2.55,0,0,1-.39,0C27.21,58.31,27.22,57.73,27.23,57.16Z"/><path class="cls-1" d="M83.55,66.88c0,.21,0,.34,0,.47,0,.72,0,.65-.64.65h-3.6c-.21,0-.27.07-.28.29v1.86c0,.24,0,.49,0,.73a.21.21,0,0,0,.2.22h4.4a.19.19,0,0,1,.21.2c0,1,.13.89-.79.89H78.23c-.5,0-.51,0-.51-.52q0-4.2,0-8.39v-.27a.2.2,0,0,1,.2-.21h5.4l.39,0a.18.18,0,0,1,.18.17q0,.3,0,.6c0,.24-.07.3-.33.3H79.84c-.2,0-.4,0-.6,0a.18.18,0,0,0-.17.17s0,0,0,.06v2.47a.22.22,0,0,0,.24.24h4.25Z"/><path class="cls-1" d="M106.67,64a19.42,19.42,0,0,0,0,2.86,8.79,8.79,0,0,0,1.45,0h3a2.28,2.28,0,0,1,0,1.13c-1.49,0-2.94,0-4.35,0a.43.43,0,0,0-.13.41c0,.78,0,1.56,0,2.33,0,.32,0,.35.33.35h4.26c.16,0,.26.08.26.24,0,1,.14.87-.81.88h-5.19a.18.18,0,0,1-.18-.16c0-.11,0-.22,0-.34V63.33c0-.11,0-.22,0-.33s.08-.15.18-.16l.33,0h5.45a.19.19,0,0,1,.21.2c0,1,.11.88-.8.88h-3.53A.91.91,0,0,0,106.67,64Z"/><path class="cls-1" d="M27.34,32.43l-.57-2.25a10,10,0,0,1-.28-2c0-.24,0-.48,0-.73a1.89,1.89,0,0,1,3.73-.14,5.1,5.1,0,0,1,.05,1.46.82.82,0,0,1-.47.68.8.8,0,0,1-1.13-.34,1.35,1.35,0,0,1,0-1.16.68.68,0,0,1,.64-.49.16.16,0,0,0,.18-.12,1.73,1.73,0,0,0-.46-.6A1.05,1.05,0,0,0,27.4,27a2.06,2.06,0,0,0-.18.77,7.55,7.55,0,0,0,.33,2.63c.1.34.22.67.35,1a5,5,0,0,0,1.65,2.28,19.54,19.54,0,0,0,1.66,1.21c.31.19.4.15.4-.19a13.78,13.78,0,0,1,.14-1.92,3.25,3.25,0,0,1,.33-1.14.34.34,0,0,1,.6-.1,3.74,3.74,0,0,1,.81,1,2.87,2.87,0,0,0-.14,1,2.34,2.34,0,0,1,0,.38c0,.12-.11.17-.22.21s-.17-.35-.39-.4a.93.93,0,0,0,0,.47,4.84,4.84,0,0,0,.93,1.87,1.63,1.63,0,0,0-.18,1,.4.4,0,0,1-.31.45c-.11-.06-.24-.11-.35-.18l-7.67-4.63c-.13-.08-.29-.12-.38-.33l1.93.12.46,0C27.3,32.62,27.39,32.61,27.34,32.43Z"/><path class="cls-1" d="M34.88,64.81l-.39-.25a4.24,4.24,0,0,0-3.17-.65,2.19,2.19,0,0,0-.75.28,1.38,1.38,0,0,0-.72,1.39,1.14,1.14,0,0,0,.6,1,2.68,2.68,0,0,0,.87.32l1.88.38a4.54,4.54,0,0,1,1.24.47,2,2,0,0,1,1.07,1.79,2.44,2.44,0,0,1-1.4,2.38,3.12,3.12,0,0,1-1,.34,6.33,6.33,0,0,1-4.19-.59c-.74-.4-.62-.32-.35-1,.05-.13.11-.24.15-.35s.27,0,.38.11a5.21,5.21,0,0,0,3.63.73,2,2,0,0,0,.81-.29,1.28,1.28,0,0,0,.61-1.11,1.09,1.09,0,0,0-.6-1,3.69,3.69,0,0,0-1.06-.36l-1.44-.29a4.6,4.6,0,0,1-1.43-.5A2.06,2.06,0,0,1,28.51,66a2.6,2.6,0,0,1,1.18-2.69,3.53,3.53,0,0,1,1.49-.54,5.88,5.88,0,0,1,2.76.23,3.61,3.61,0,0,1,1.15.64c.19.15.21.22.12.46Z"/><path class="cls-1" d="M89.81,36.76l.45-1.59c.21.08.18.23.2.36.06.44.11.88.16,1.32s.12.39.49.33a2.54,2.54,0,0,0,.91-.39,6.27,6.27,0,0,0,1.11-.95,21.09,21.09,0,0,0,1.61-2,10.8,10.8,0,0,1,.94-1.28,5.42,5.42,0,0,1,.13,1.27c0,.19,0,.35.23.41a2.71,2.71,0,0,1-.18.34,14.76,14.76,0,0,1-2.25,2.61c-.1.1-.25.16-.27.33a3.11,3.11,0,0,0,1.36-.62,8.25,8.25,0,0,0,.87-.8.34.34,0,0,1,.21.24,2.1,2.1,0,0,1,.09.71.55.55,0,0,0,.26.57c-.61.48-1.31.8-2,1.23a2.35,2.35,0,0,0-.32.23.15.15,0,0,0,0,.11,1.09,1.09,0,0,0,.25,0h1.39c.09,0,.19,0,.23.08s0,.17-.08.24a3.32,3.32,0,0,1-.68.72,6.36,6.36,0,0,1-1.42.85,19.53,19.53,0,0,1-4.74,1.38h-.07a.74.74,0,0,0,0-.26,1.32,1.32,0,0,1,0-.94,1.07,1.07,0,0,0,0-.25h.66a8.32,8.32,0,0,0,1.79-.14,7.42,7.42,0,0,0,2.62-1.08c.06,0,.18-.08.12-.2a.24.24,0,0,0-.17-.06,8.6,8.6,0,0,0-3.15.37,2.16,2.16,0,0,1-.7.2c0-.71,0-1.41,0-2.12A4.23,4.23,0,0,0,89.81,36.76Z"/><path class="cls-1" d="M58.3,72.19c-.09-.16,0-.25,0-.34q1.9-4.3,3.82-8.62a2.56,2.56,0,0,1,.11-.24.26.26,0,0,1,.26-.16h.2c1,0,.74-.14,1.12.7q1.83,4,3.64,8c.07.14.14.28.2.43s0,.22-.12.23h-1a.3.3,0,0,1-.29-.22c-.16-.37-.31-.74-.48-1.1s-.19-.73-.48-.92-.64-.06-1-.06c-1.13,0-2.26,0-3.39,0a.53.53,0,0,0-.59.4c-.22.55-.48,1.09-.71,1.64a.36.36,0,0,1-.41.26C58.93,72.2,58.6,72.24,58.3,72.19Zm6.56-3.38a40.23,40.23,0,0,0-2-4.44c-.62,1.4-1.19,2.79-1.78,4.17a.31.31,0,0,0,0,.27Z"/><path class="cls-1" d="M96,34.21c-.2-.06-.24-.22-.23-.41a5.42,5.42,0,0,0-.13-1.27,2.74,2.74,0,0,1,.59-.72c.25-.23.47-.18.64.12a2.44,2.44,0,0,1,.23.69,16,16,0,0,1,.23,2.18c0,.15,0,.31.07.44s.21,0,.3-.09a15.71,15.71,0,0,0,2.17-1.65,3.16,3.16,0,0,0,.55-.66,9,9,0,0,0,1.32-4.61,3.35,3.35,0,0,0-.13-.78,1.06,1.06,0,0,0-1.85-.4l-.24.31c-.1.14-.06.26.11.28a.75.75,0,0,1,.47.21.94.94,0,0,1,.24.61,2.88,2.88,0,0,1,0,.59.76.76,0,0,1-.65.66.87.87,0,0,1-.94-.48,1.62,1.62,0,0,1-.12-.58,3.91,3.91,0,0,1,.14-1.32,1.88,1.88,0,0,1,3.7.47,8.89,8.89,0,0,1-.19,2.24c-.15.74-.33,1.47-.55,2.19a.82.82,0,0,0-.07.54c.83,0,1.65-.1,2.48-.13a.22.22,0,0,1-.15.23l-7.74,4.67-.12.05a.55.55,0,0,1-.26-.57,2.1,2.1,0,0,0-.09-.71.34.34,0,0,0-.21-.24l.31-.51a3.91,3.91,0,0,0,.47-1.37c0-.07.05-.18-.11-.21Z"/><path class="cls-1" d="M33.17,37.57a.4.4,0,0,0,.31-.45,1.63,1.63,0,0,1,.18-1l.45.39a4.29,4.29,0,0,0,1.37.8.25.25,0,0,0,.26,0l-.66-.65a11.81,11.81,0,0,1-2-2.47c.11,0,.21-.09.22-.21a2.34,2.34,0,0,0,0-.38,2.87,2.87,0,0,1,.14-1,1.57,1.57,0,0,1,.41.51c.44.58.86,1.18,1.3,1.76a8.54,8.54,0,0,0,1.28,1.34,3.14,3.14,0,0,0,1.2.69c.55.17.61.15.69-.41s.11-.92.17-1.38c0-.08,0-.16,0-.24h.1a17.83,17.83,0,0,1,.88,2c-.2.08-.22.25-.22.44,0,.61,0,1.23,0,1.85a4.57,4.57,0,0,1-.13,1.17,3.65,3.65,0,0,1-.46-.07,8.16,8.16,0,0,0-1.71-.21,2.07,2.07,0,0,0-1,.08c-.11.06.15.26.8.6a10,10,0,0,0,2,.72V42a2.33,2.33,0,0,1-.78-.14,15.69,15.69,0,0,1-2.75-.95A6.54,6.54,0,0,1,33.94,40a3.11,3.11,0,0,1-.7-.79.13.13,0,0,1,.1-.19H34.8l.33,0s0-.1,0-.11a.79.79,0,0,0-.2-.17l-1.42-.86A1,1,0,0,1,33.17,37.57Z"/><path class="cls-1" d="M55.71,48.75a5.92,5.92,0,0,1,3.8,2.58,8.2,8.2,0,0,1,1.36,4.18,5,5,0,0,1-1.31,3.66,6.57,6.57,0,0,1-5.72,2.23,1.15,1.15,0,0,1-.51-.14c0-.41,0-.82,0-1.22,0-.19,0-.35.27-.38a1.21,1.21,0,0,1,.19,0,4.31,4.31,0,0,0,2.11,0,4.73,4.73,0,0,0,3.17-2.42,3.63,3.63,0,0,0,.36-2.64A4.93,4.93,0,0,0,58.73,53a6.28,6.28,0,0,0-2.5-2.13l-.66-.32c0-.37,0-.75,0-1.12A1.43,1.43,0,0,1,55.71,48.75Z"/><path class="cls-1" d="M55,66.86c0,.08,0,.17-.08.25l-2.13,4.73-.12.24a.25.25,0,0,1-.2.14,1.93,1.93,0,0,0-.34,0c-.28,0-.43-.09-.55-.35-.76-1.73-1.54-3.44-2.31-5.16-.09-.2-.18-.4-.28-.6S49,66,48.88,66s-.05.06-.05.1,0,.35,0,.53v4.79c0,.18,0,.36,0,.53a.2.2,0,0,1-.2.22c-1,.12-1,.07-1-.86,0-2.6,0-5.19,0-7.79,0-.18,0-.35,0-.53s0-.19.14-.19h.93c.11,0,.16.08.2.16s.13.28.19.42c1,2.13,1.89,4.25,2.83,6.38l.28.6c.2,0,.2-.14.25-.25.48-1.07,1-2.15,1.43-3.22a1.29,1.29,0,0,1,.25-.46.74.74,0,0,1,.46.24A.64.64,0,0,0,55,66.86Z"/><path class="cls-1" d="M99.46,70.36c.2-.13.23-.36.31-.55.91-2.1,1.79-4.2,2.7-6.3.36-.83.13-.68,1-.69a.94.94,0,0,1,.57.07.61.61,0,0,1-.1.37q-1.87,4.26-3.76,8.51c0,.1-.1.2-.14.3a.2.2,0,0,1-.21.14c-.22,0-.44,0-.66,0a.47.47,0,0,1-.55-.35c-.34-.81-.71-1.62-1.07-2.43q-1.32-3-2.65-6l-.23-.53a6,6,0,0,1,1.33,0c.1,0,.15.07.19.16l.24.54q1.33,3.15,2.69,6.3A1,1,0,0,0,99.46,70.36Z"/><path class="cls-1" d="M73.4,9.91a3.07,3.07,0,0,1,.69-.79c.16-.18.37-.33.4-.59a1.34,1.34,0,0,1,.54.25,21.5,21.5,0,0,1,8.82,9.64,4.94,4.94,0,0,1,.19.49.8.8,0,0,0-.69.27c-.14.16-.3.3-.46.45a.56.56,0,0,1-.38.21l-.22-.41a19.62,19.62,0,0,0-8.44-9.24C73.7,10.11,73.55,10,73.4,9.91Z"/><path class="cls-1" d="M94.35,56.87a.75.75,0,0,0-.25-.45c-.58-.58-1.14-1.17-1.74-1.72-.33-.31-.72-.57-1-.91-.07-.08-.15-.16-.22-.25s0-.2,0-.29l.9.38,2.58,1.12a.15.15,0,0,0,.19.09l2.24.84c0,.06.07.1.15.07l1.44.48a16.32,16.32,0,0,0,4.32.92l1.31.12c-.14,0-.19.07-.19.19a.36.36,0,0,0,.12.28,3.52,3.52,0,0,0,.67.61.48.48,0,0,1,.23.5,17.91,17.91,0,0,1-6.06-.43A26.28,26.28,0,0,1,94.65,57Z"/><path class="cls-1" d="M45.35,45.57c0,.61,0,1.21,0,1.81-.42,0-.84,0-1.26,0A15.74,15.74,0,0,0,38,48.86c-1.67.82-3.37,1.57-5,2.35a4.29,4.29,0,0,1-.5.19,1.36,1.36,0,0,1-.14-.69c0-.37,0-.73,0-1.1.94-.49,1.87-1,2.82-1.47A27.78,27.78,0,0,1,41,46.08c.63-.15,1.26-.25,1.89-.36a5.84,5.84,0,0,1,.73,0,1,1,0,0,0,.7-.08A4.1,4.1,0,0,1,45.35,45.57Z"/><path class="cls-1" d="M32.29,49.61c0,.37,0,.73,0,1.1a1.36,1.36,0,0,0,.14.69l-.09.09A51.86,51.86,0,0,1,26,54a21.41,21.41,0,0,1-7,.86c-.08,0-.17,0-.26,0,0-.42,0-.83,0-1.24a3.73,3.73,0,0,1,.46,0,17,17,0,0,0,5.15-.87,70.36,70.36,0,0,0,7.66-3A1.92,1.92,0,0,1,32.29,49.61Z"/><path class="cls-1" d="M44.64,36.63a.79.79,0,0,0,.54-.2l.81-.75.19.35a19.24,19.24,0,0,0,8.63,9.14,1,1,0,0,1,.38.24c0,.33-.29.48-.47.68s-.44.38-.47.69a3.07,3.07,0,0,1-.42-.17,21.17,21.17,0,0,1-8.95-9.37A1.47,1.47,0,0,1,44.64,36.63Z"/><path class="cls-1" d="M41.6,53.79a6.54,6.54,0,0,0-.09-.89,7.1,7.1,0,0,1,0-1,.42.42,0,0,0,.14-.35l.06-.65c.14,0,.16.07.18.16s0,.31.19.45a1.68,1.68,0,0,0,.61-.31c.61-.36,1.21-.72,1.85-1l.61-.25h0v0a15.47,15.47,0,0,1,3.63-1.14l.51-.13a3.23,3.23,0,0,1,1.33,1.15c.05.06,0,.17.06.25l-.8.1a16.79,16.79,0,0,0-7,2.83.61.61,0,0,0-.28.27,6.62,6.62,0,0,0,2.64,3.4c0,.24,0,.48,0,.71a2.68,2.68,0,0,1-.14,1,4.27,4.27,0,0,1-2.4-1.76,6.12,6.12,0,0,1-.94-2.44C41.72,54,41.74,53.87,41.6,53.79Z"/><path class="cls-1" d="M69.08,66.72l0-2c0-.51,0-1,0-1.53,0-.34,0-.37.39-.37,1.18,0,1-.19,1,1,0,.91,0,1.82,0,2.73a1.09,1.09,0,0,0,0,.26.12.12,0,0,0,.2.07l.43-.41c1.1-1.07,2.21-2.13,3.28-3.22a1.21,1.21,0,0,1,1-.39c.31,0,.62,0,.91,0,.09.22-.08.26-.16.34l-3.82,3.7c-.16.15-.31.31-.49.5.82.82,1.64,1.59,2.45,2.37s1.63,1.56,2.44,2.34c0,.18-.17.14-.27.15-.31,0-.62,0-.93,0A.87.87,0,0,1,74.8,72c-.84-.82-1.7-1.63-2.55-2.44l-1.5-1.42a.37.37,0,0,0-.34-.15c-.24-.31-.47-.62-.72-.93A.66.66,0,0,0,69.08,66.72Z"/><path class="cls-1" d="M44.37,15c.35-.56.71-1.12,1-1.69a5.71,5.71,0,0,0,.66-1.66,2.67,2.67,0,0,0-.36-2c0-.05-.1-.07-.19-.13,0,.2-.08.36-.11.52a5.11,5.11,0,0,1-.49,1.44,12.86,12.86,0,0,1-2.44,3.28,1.31,1.31,0,0,0-.7-.15c.15-.16.29-.33.45-.48a10.41,10.41,0,0,0,2.23-3.29,3.41,3.41,0,0,0,.33-1.81c0-.31-.13-.44-.43-.5a2.06,2.06,0,0,0-1.18.06,3.19,3.19,0,0,0-1.7,1.51c-.13.23-.24.47-.35.7-.13,0-.16-.1-.19-.18a1.94,1.94,0,0,1,.88-2.36,3.64,3.64,0,0,1,1.76-.55H44a.21.21,0,0,0,.11,0,.15.15,0,0,0,0-.18,1.94,1.94,0,0,0-2.23-.6,3.26,3.26,0,0,0-1.72,1.59c-.11.21-.21.42-.34.69a1.79,1.79,0,0,1-.07-1.76,1.76,1.76,0,0,1,.55-.66,3.31,3.31,0,0,1,3.07-.61,2.39,2.39,0,0,1,1.39,1.08,12.29,12.29,0,0,0,1.2,1.57,3.46,3.46,0,0,1,.69,3.43A7.72,7.72,0,0,1,45,15.05Z"/><path class="cls-1" d="M81.84,12a3.26,3.26,0,0,1,0-2.7,3.48,3.48,0,0,1,1-1.4,1.62,1.62,0,0,0,.44-.57,3.73,3.73,0,0,1,.78-1.07,2.51,2.51,0,0,1,1.62-.69,3.59,3.59,0,0,1,2,.44,2.22,2.22,0,0,1,.84.74,1.85,1.85,0,0,1,.07,2c-.12-.25-.2-.45-.3-.64a3.47,3.47,0,0,0-1.62-1.61A1.9,1.9,0,0,0,84.31,7a.21.21,0,0,0,0,.18s.1.07.16.07a4.87,4.87,0,0,1,1.31.18,3.3,3.3,0,0,1,1.1.61,1.87,1.87,0,0,1,.53,2.23.18.18,0,0,1-.09.08.16.16,0,0,1-.1,0c-.11-.22-.19-.46-.31-.67a3.14,3.14,0,0,0-2-1.58,1.52,1.52,0,0,0-.6,0c-.75.13-.73.22-.76.84a3.41,3.41,0,0,0,.35,1.54,12.16,12.16,0,0,0,1.23,2.13c.08.11.14.22.21.33l-.54.22a7.59,7.59,0,0,1-1.94-4c-.14,0-.19.06-.25.15a2.67,2.67,0,0,0-.29,2l.18.7Z"/><path class="cls-1" d="M92.39,71.49a3.25,3.25,0,0,1-1.86.8,5.25,5.25,0,0,1-2-.08A3.83,3.83,0,0,1,85.8,70a6.06,6.06,0,0,1-.46-3.31A4.93,4.93,0,0,1,85.8,65a3.33,3.33,0,0,1,1.38-1.56,1.31,1.31,0,0,1,.49.5.65.65,0,0,0,.46.31,1.62,1.62,0,0,1-.19.18,2.85,2.85,0,0,0-1,1.59,6,6,0,0,0-.09,2.63,3.74,3.74,0,0,0,.46,1.3,2.22,2.22,0,0,0,.89.88,3.2,3.2,0,0,0,3,0,4.73,4.73,0,0,0,.44-.28A1,1,0,0,0,92,71,1.43,1.43,0,0,1,92.39,71.49Z"/><path class="cls-1" d="M85.16,47.37a.71.71,0,0,0-.38-.59,3.72,3.72,0,0,1-.86-.82A.16.16,0,0,1,84,45.7c.18-.06.4,0,.57-.13h.49a3,3,0,0,0,1.19.09,12.14,12.14,0,0,1,2.6.41,24.32,24.32,0,0,1,3.89,1.21.17.17,0,0,0,0,.23,2.55,2.55,0,0,0,.26.3,15.34,15.34,0,0,0,1.45,1.34,7.48,7.48,0,0,1,.89.89c.11.12,0,.24-.06.34L94,49.85c-.7-.33-1.41-.65-2.1-1a13,13,0,0,0-3.66-1.16A18.94,18.94,0,0,0,85.16,47.37Z"/><path class="cls-1" d="M92.39,71.49A1.43,1.43,0,0,0,92,71a1,1,0,0,1-.32-.48,3.45,3.45,0,0,0,.88-1.69A6,6,0,0,0,92.67,67a5.18,5.18,0,0,0-.3-1.35A2.59,2.59,0,0,0,90,63.89a3.87,3.87,0,0,0-1.87.33.65.65,0,0,1-.46-.31,1.31,1.31,0,0,0-.49-.5,3.26,3.26,0,0,1,1.39-.6,5.17,5.17,0,0,1,2.62.09,3.86,3.86,0,0,1,2.62,2.6,6.35,6.35,0,0,1,0,4A3.69,3.69,0,0,1,92.39,71.49Z"/><path class="cls-1" d="M18.71,53.58c0,.41,0,.82,0,1.24a24.18,24.18,0,0,1-2.7-.25c-1.3-.17-2.59-.35-3.87-.62A38.94,38.94,0,0,1,1.88,50.22l-.11-.08L1.88,50l2.64.88a61.85,61.85,0,0,0,8,2.06c.76.14,1.53.24,2.29.36a.67.67,0,0,0,.57.08l2.32.14Z"/><path class="cls-1" d="M27.23,57.16c0,.57,0,1.15,0,1.72a2.21,2.21,0,0,1-.72.07,16.85,16.85,0,0,1-3.94-.47,94.6,94.6,0,0,1-9.34-2.95.67.67,0,0,1-.12-.06l.22-.12c.68.19,1.36.39,2,.55,1.09.26,2.19.5,3.29.75a.19.19,0,0,0,.24.06l.56.08c.06.09.15.09.25.06l1.45.16a29.56,29.56,0,0,0,4.7.24h.2a1.28,1.28,0,0,0,.9-.08Z"/><path class="cls-1" d="M89.81,36.76A4.23,4.23,0,0,1,90,38c0,.71,0,1.41,0,2.12l-1.26.66c-.06,0-.1.09-.06.15s.09.07.15.1a1.07,1.07,0,0,1,0,.25,1.32,1.32,0,0,0,0,.94.74.74,0,0,1,0,.26c-.56.09-1.12.2-1.69.28a9,9,0,0,0-2.28.61l-.55.21c-.22-.23-.2-.56-.31-.84a15.62,15.62,0,0,1,3.36-2.21,2.73,2.73,0,0,0,1-.88,8.93,8.93,0,0,0,1.06-1.91C89.54,37.41,89.68,37.08,89.81,36.76Z"/><path class="cls-1" d="M105.12,58.85a.48.48,0,0,0-.23-.5,3.52,3.52,0,0,1-.67-.61.36.36,0,0,1-.12-.28c0-.12.05-.21.19-.19l.47,0a34.75,34.75,0,0,0,7.12-.72,56.38,56.38,0,0,0,5.58-1.44l.32-.07,0,0c-.09.15-.25.17-.39.22a95.37,95.37,0,0,1-10.29,3.28A7.29,7.29,0,0,1,105.12,58.85Z"/><path class="cls-1" d="M39.22,40.35a4.57,4.57,0,0,0,.13-1.17c0-.62,0-1.24,0-1.85,0-.19,0-.36.22-.44.33.62.65,1.25,1,1.86a6.74,6.74,0,0,0,1.81,2.16l2,1.54.42.32a1.37,1.37,0,0,0-.1.57,9.66,9.66,0,0,0-2.21-.71l-1.77-.28A10.39,10.39,0,0,1,39,42c0-.17,0-.33,0-.5a10,10,0,0,0,2.25.07.65.65,0,0,0,.19,0s0-.09,0-.11a.74.74,0,0,0-.19-.16A13.54,13.54,0,0,0,39.22,40.35Z"/><path class="cls-1" d="M55,66.86a.64.64,0,0,1-.49-.16.74.74,0,0,0-.46-.24c.17-.41.33-.82.51-1.22.32-.73.65-1.45,1-2.18a.34.34,0,0,1,.35-.24c1.09,0,.94-.16.94.88,0,1.54,0,3.09,0,4.64,0,.22,0,.44,0,.66a.83.83,0,0,1-.56-.32c-.2-.18-.34-.42-.62-.49,0-.52,0-1,0-1.56,0-.26,0-.52,0-.78-.07,0-.1,0-.11.06Z"/><path class="cls-1" d="M89.24,27.29A15.34,15.34,0,0,1,87,37.54a1.58,1.58,0,0,1-.12.15h-.19A25.23,25.23,0,0,0,88,33.87a22.23,22.23,0,0,0,.6-6c0-.09,0-.18,0-.27C88.79,27.47,89,27.27,89.24,27.29Z"/><path class="cls-1" d="M53.62,59.66c-.22,0-.27.19-.27.38,0,.4,0,.81,0,1.22a4.51,4.51,0,0,1-3.52-3,.57.57,0,0,1,.23-.3l.9-.52A5.35,5.35,0,0,0,53.62,59.66Z"/><path class="cls-1" d="M69.08,66.72a.66.66,0,0,1,.61.3c.25.31.48.62.72.93,0,1.28,0,2.57,0,3.85a1.23,1.23,0,0,1,0,.27c0,.05-.08.13-.12.13H69.23a.18.18,0,0,1-.17-.18,2.17,2.17,0,0,1,0-.26c0-1.62,0-3.24,0-4.86A1.23,1.23,0,0,1,69.08,66.72Z"/><path class="cls-1" d="M88,15.47a1.66,1.66,0,0,1,.21.16,24.7,24.7,0,0,1,3,3.73,7.37,7.37,0,0,1,1.12,2.45l-.73,0c-.15-.32-.3-.64-.46-1a13.08,13.08,0,0,0-2.77-3.94,5.52,5.52,0,0,1-1-1.06C87.66,15.87,87.91,15.81,88,15.47Z"/><path class="cls-1" d="M55.71,48.75a1.43,1.43,0,0,0-.13.71c0,.37,0,.75,0,1.12a11,11,0,0,0-2.9-.56c-.23-.42-.46-.85-.7-1.27a.39.39,0,0,1,0-.38,11.7,11.7,0,0,1,3.49.29A1.84,1.84,0,0,1,55.71,48.75Z"/><path class="cls-1" d="M38.63,22.8a17.32,17.32,0,0,0-1.12,3A15.17,15.17,0,0,0,37,29.55a1.65,1.65,0,0,1,0,.32s0,0-.07,0a10.9,10.9,0,0,1-.1-2.85,12.41,12.41,0,0,1,.74-3.57A8.64,8.64,0,0,1,38.83,21c.26,0,.48.13.54.41l-.61,1.09C38.62,22.57,38.61,22.67,38.63,22.8Z"/><path class="cls-1" d="M89.81,21a8.83,8.83,0,0,1,1.45,3.25,15.31,15.31,0,0,1,.25,5.48c0,.08-.06.16-.09.25l0,0s.1,0,.08,0a11,11,0,0,1-.21-2.22,16.68,16.68,0,0,0-1.89-6l-.17-.36a.38.38,0,0,1,.29-.29A.34.34,0,0,0,89.81,21Z"/><path class="cls-1" d="M39.38,30.48a15.56,15.56,0,0,1,1.55-8.27.72.72,0,0,1,.11-.15h.14a27.37,27.37,0,0,0-.8,3.36,23.22,23.22,0,0,0-.26,3.91v.73a.56.56,0,0,0-.36.24A.43.43,0,0,1,39.38,30.48Z"/><path class="cls-1" d="M35.52,28.28A13.76,13.76,0,0,1,36,22.23a6.62,6.62,0,0,1,.92-2l.73.13c-.35.77-.74,1.51-1,2.31a16.65,16.65,0,0,0-1,5c0,.2,0,.4-.05.59h0Z"/><path class="cls-1" d="M89.81,21a.34.34,0,0,1-.26.15.38.38,0,0,0-.29.29,1.66,1.66,0,0,1-.13-.14,12.51,12.51,0,0,0-2.22-2.79c-.54-.52-1-1.08-1.57-1.62a2.56,2.56,0,0,1-.2-.26,1.77,1.77,0,0,0,.66-.25.39.39,0,0,1,.11.06,26,26,0,0,1,3.79,4.33A1,1,0,0,1,89.81,21Z"/><path class="cls-1" d="M55.64,68.19c.28.07.42.31.62.49a.83.83,0,0,0,.56.32,2.6,2.6,0,0,1,0,.39c0,.86,0,1.72,0,2.58,0,.15-.07.26-.23.25a2.93,2.93,0,0,1-1,0,1.91,1.91,0,0,1,0-.21V68.39A1.38,1.38,0,0,1,55.64,68.19Z"/><path class="cls-1" d="M39.37,21.44c-.06-.28-.28-.37-.54-.41a3.41,3.41,0,0,1,.48-.71,28.37,28.37,0,0,1,2.69-3c.11-.11.24-.19.36-.29a.66.66,0,0,0,.63.31,6.9,6.9,0,0,1-.9,1A20.78,20.78,0,0,0,39.37,21.44Z"/><path class="cls-1" d="M85.8,16.38a1.77,1.77,0,0,1-.66.25,14.93,14.93,0,0,1-2.71-3.32A4.29,4.29,0,0,1,81.84,12h.65c.13.28.27.56.4.83v0l0,0c0,.07.11.14.15.21a10.64,10.64,0,0,0,2.26,2.82C85.5,16.06,85.64,16.23,85.8,16.38Z"/><path class="cls-1" d="M91.6,21.84l.73,0a9.08,9.08,0,0,1,.54,2.52,17.75,17.75,0,0,1,0,3.26.77.77,0,0,1-.22.6.46.46,0,0,0-.13.36c0,.09,0,.18.13.2a.16.16,0,0,0,.21-.11.4.4,0,0,0,0-.38,2.47,2.47,0,0,1-.16-1,19.86,19.86,0,0,0-.44-3.16C92.1,23.31,91.84,22.57,91.6,21.84Z"/><path class="cls-1" d="M39.38,30.48a.43.43,0,0,0,.38-.17.56.56,0,0,1,.36-.24c.09.73.17,1.47.29,2.2s.23,1.2.35,1.8a.44.44,0,0,0-.37.46,2.13,2.13,0,0,1,0,.25,10.11,10.11,0,0,1-.74-2.46A7.61,7.61,0,0,1,39.38,30.48Z"/><path class="cls-1" d="M89.24,27.29c-.27,0-.45.18-.67.28a.73.73,0,0,1-.08-.38,19.72,19.72,0,0,0-.9-4.82c-.08-.26-.15-.51-.23-.8a2.58,2.58,0,0,1,.46.77,17.17,17.17,0,0,1,1.43,4.82A.57.57,0,0,1,89.24,27.29Z"/><path class="cls-1" d="M37.66,20.38l-.73-.13c0-.17.12-.28.2-.41a25.63,25.63,0,0,1,2-2.57.67.67,0,0,1,.16-.12l.78.17a1.59,1.59,0,0,1-.15.21,10.63,10.63,0,0,0-2,2.6A2.43,2.43,0,0,1,37.66,20.38Z"/><path class="cls-1" d="M88,15.47c-.06.34-.31.4-.59.41a21.52,21.52,0,0,1-2.59-2.81l.54-.22c.66.72,1.37,1.39,2.08,2.05C87.61,15.08,87.78,15.28,88,15.47Z"/><path class="cls-1" d="M40,17.32l-.78-.17a11.56,11.56,0,0,1,1.3-1.41c.4-.38.82-.74,1.23-1.11a1.31,1.31,0,0,1,.7.15A34.53,34.53,0,0,1,40,17.32Z"/><path class="cls-1" d="M83.93,42.73c.11.28.09.61.31.84-.07.13-.21.15-.33.21l-2.46,1.15-.43.2a.38.38,0,0,1,.19-.28l2.49-2A1.71,1.71,0,0,1,83.93,42.73Z"/><path class="cls-1" d="M43,17.34a.66.66,0,0,1-.63-.31l.88-.87L44.37,15l.66.06A14.79,14.79,0,0,1,43,17.34Z"/><path class="cls-1" d="M79.4,9.48a.74.74,0,0,1-.73-.71A.78.78,0,0,1,79.43,8a.76.76,0,0,1,.72.73A.71.71,0,0,1,79.4,9.48Z"/><path class="cls-1" d="M76.94,6.34a.7.7,0,0,1-.69.73.72.72,0,0,1-.77-.72.76.76,0,0,1,.76-.75A.74.74,0,0,1,76.94,6.34Z"/><path class="cls-1" d="M67.81,3.72a.7.7,0,0,1,.7-.72.73.73,0,0,1,.76.74.75.75,0,0,1-.71.72A.72.72,0,0,1,67.81,3.72Z"/><path class="cls-1" d="M60.15,3a.74.74,0,0,1,.73.71.76.76,0,0,1-.75.77.73.73,0,0,1-.72-.79A.7.7,0,0,1,60.15,3Z"/><path class="cls-1" d="M57,4.69a.7.7,0,0,1-.73.69.74.74,0,0,1-.72-.73.73.73,0,0,1,.78-.72A.7.7,0,0,1,57,4.69Z"/><path class="cls-1" d="M72.4,5.2a.68.68,0,0,1-.73-.68.73.73,0,0,1,.71-.79.79.79,0,0,1,.76.76A.74.74,0,0,1,72.4,5.2Z"/><path class="cls-1" d="M63.55,3.35a.71.71,0,0,1,.72-.7.74.74,0,1,1,0,1.47A.71.71,0,0,1,63.55,3.35Z"/><path class="cls-1" d="M52.45,7.19a.68.68,0,0,1-.75-.67.72.72,0,0,1,.72-.78.75.75,0,0,1,.74.72A.74.74,0,0,1,52.45,7.19Z"/><path class="cls-1" d="M49.87,8.72a.7.7,0,0,1-.69.74.72.72,0,0,1-.77-.66A.75.75,0,0,1,49.14,8,.73.73,0,0,1,49.87,8.72Z"/><path class="cls-1" d="M44.67,43.34a1.37,1.37,0,0,1,.1-.57c1,.62,1.95,1.27,2.88,2a.42.42,0,0,0,.12,0v0c-.12,0-.25-.06-.37-.11C46.47,44.23,45.55,43.83,44.67,43.34Z"/><path class="cls-1" d="M67,52.76c-.21-.33,0-.58.17-.81a.73.73,0,0,1,1.2.52c0,.15,0,.31-.14.41a.61.61,0,0,0-.41-.13Z"/><path class="cls-1" d="M40.36,34.78a2.13,2.13,0,0,0,0-.25.44.44,0,0,1,.37-.46l.63,2.12a.76.76,0,0,1-.24.35A7.35,7.35,0,0,1,40.36,34.78Z"/><path class="cls-1" d="M61.76,52.64A.63.63,0,0,1,62,52a.67.67,0,0,1,.54-.17.69.69,0,0,1,.63.86Z"/><path class="cls-1" d="M61.76,52.64h1.39a.7.7,0,0,1-.66.61.66.66,0,0,1-.43-.13A.6.6,0,0,1,61.76,52.64Z"/><path class="cls-1" d="M13.31,55.35l-.22.12c-.47-.17-.95-.33-1.42-.52a5.4,5.4,0,0,1-.9-.45Z"/><path class="cls-1" d="M41.15,36.54a.76.76,0,0,0,.24-.35c.25.6.51,1.19.8,1.87A3.85,3.85,0,0,1,41.15,36.54Z"/><path class="cls-1" d="M67,52.76h.82a.61.61,0,0,1,.41.13A.66.66,0,0,1,67,52.76Z"/><path class="cls-1" d="M35.52,28.28l0,0h0a1,1,0,0,1-.09.64.49.49,0,0,0,0,.44.2.2,0,0,0,.16.07.2.2,0,0,0,.13-.12.51.51,0,0,0-.14-.48A.59.59,0,0,1,35.52,28.28Z"/><path class="cls-1" d="M86.67,37.69h.19a3.46,3.46,0,0,1-.41.67A1.07,1.07,0,0,1,86.67,37.69Z"/><path class="cls-1" d="M1.88,50l-.11.12a.8.8,0,0,1-.49-.31A1,1,0,0,1,1.88,50Z"/><path class="cls-1" d="M41.18,22.07H41c0-.25.19-.41.32-.6h0Z"/><path class="cls-1" d="M86.26,45.66a3,3,0,0,1-1.19-.09A3,3,0,0,1,86.26,45.66Z"/><path class="cls-1" d="M36.84,29.88s0,0,.07,0a1.2,1.2,0,0,1-.1.77s0,.06.07.1,0,0,0,0,0,0,0-.05A1.33,1.33,0,0,1,36.84,29.88Z"/><path class="cls-1" d="M27,57.18a1.28,1.28,0,0,1-.9.08A2.27,2.27,0,0,1,27,57.18Z"/><path class="cls-1" d="M44.36,45.59a1,1,0,0,1-.7.08A1.29,1.29,0,0,1,44.36,45.59Z"/><path class="cls-1" d="M15.33,53.4a.67.67,0,0,1-.57-.08A1.24,1.24,0,0,1,15.33,53.4Z"/><path class="cls-1" d="M76.2,48.4a.53.53,0,0,1-.47.07A.6.6,0,0,1,76.2,48.4Z"/><path class="cls-1" d="M38.63,22.8c0-.13,0-.23.13-.27A.39.39,0,0,1,38.63,22.8Z"/><path class="cls-1" d="M18.89,56.71a.19.19,0,0,1-.24-.06A.2.2,0,0,1,18.89,56.71Z"/><path class="cls-1" d="M19.7,56.85c-.1,0-.19,0-.25-.06A.21.21,0,0,1,19.7,56.85Z"/><path class="cls-1" d="M94.83,54.84a.15.15,0,0,1-.19-.09A.15.15,0,0,1,94.83,54.84Z"/><path class="cls-1" d="M41.36,21.46s.07,0,0-.08l0,0s0,.07,0,.09Z"/><path class="cls-1" d="M97.22,55.75c-.08,0-.12,0-.15-.07A.12.12,0,0,1,97.22,55.75Z"/><polygon class="cls-1" points="82.93 12.88 82.89 12.86 82.89 12.81 82.93 12.83 82.93 12.88"/><polygon class="cls-1" points="45.15 49.88 45.14 49.91 45.11 49.9 45.12 49.87 45.15 49.88"/><polygon class="cls-1" points="47.77 44.77 47.74 44.76 47.76 44.75 47.77 44.77"/><path class="cls-1" d="M86.26,38.6h-.05s0,.06,0,0Z"/><path class="cls-1" d="M55.47,65.91c0-.08,0-.11.11-.06A.24.24,0,0,1,55.47,65.91Z"/><polygon class="cls-1" points="86.24 38.61 86.23 38.59 86.25 38.6 86.24 38.61"/><polygon class="cls-1" points="82.3 36.17 82.29 36.13 82.33 36.12 82.33 36.16 82.3 36.17"/><path class="cls-1" d="M55.32,45.46a.12.12,0,0,1,.14.08A.11.11,0,0,1,55.32,45.46Z"/><path class="cls-1" d="M80.1,55.22l.44-1.52c.14.07.14.18.15.29a4.78,4.78,0,0,1,0,1.51C80.44,55.49,80.29,55.31,80.1,55.22Z"/><path class="cls-1" d="M82.42,57h.82A.88.88,0,0,1,82.42,57Z"/><path class="cls-1" d="M49.35,56.48a8.8,8.8,0,0,1,0-2.81,8.3,8.3,0,0,1,.4,1.14c.15.37.29.75.43,1.12A1.62,1.62,0,0,1,49.35,56.48Z"/><path class="cls-1" d="M27.34,32.43c.05.18,0,.19-.18.14Z"/><path class="cls-1" d="M60.25,35.56a3.75,3.75,0,0,1-.73-.76,14.17,14.17,0,0,1-1.42-2,.89.89,0,0,0-.27-.38c-.15,0-.19.15-.25.25L56,35a1.82,1.82,0,0,1-.39.53,1.65,1.65,0,0,1-.57-.14.38.38,0,0,1-.25-.35,1.42,1.42,0,0,1,.31-.58q1-1.5,2-3a.75.75,0,0,0,.17-.79s0,0,0-.06a1.57,1.57,0,0,1,.58-1.72A3.57,3.57,0,0,1,59.34,28c.19,0,.28-.2.38-.35l1.6-2.13c.89-1.16,1.79-2.32,2.76-3.41a7.82,7.82,0,0,1,.7-.71.41.41,0,0,1,.6,0,.52.52,0,0,1,.12.71q-.15.21-.33.42c-1.67,2.09-3.3,4.23-4.88,6.4-.15.2-.47.4-.3.67s.46.07.69.06a26.29,26.29,0,0,0,9.45-2.51A16.08,16.08,0,0,0,74.68,24a6.41,6.41,0,0,0,1.19-1.6,3.42,3.42,0,0,0,.38-1.26,1.61,1.61,0,0,0-.59-1.42,3.83,3.83,0,0,0-1.38-.77,9.27,9.27,0,0,0-2.15-.4,20.63,20.63,0,0,0-5.43.39,46.91,46.91,0,0,0-7.15,2,15.88,15.88,0,0,0-2.76,1.32,6,6,0,0,0-1.21.92.64.64,0,0,0-.25.52c0,.12.17.26,0,.34s-.24-.07-.35-.14a2.16,2.16,0,0,1-1-1.93.73.73,0,0,1,.19-.48,5.9,5.9,0,0,1,1.19-1.15,11.52,11.52,0,0,1,2-1.16A36.69,36.69,0,0,1,64,16.9a40.13,40.13,0,0,1,5.12-.82c.75-.08,1.5-.14,2.25-.16a14.17,14.17,0,0,1,3.05.18A3.9,3.9,0,0,1,77.53,19a5,5,0,0,1-.46,3.42,6.66,6.66,0,0,1-.91,1.31,14.15,14.15,0,0,1-2.73,2.33,20.41,20.41,0,0,1-3.52,1.86,31.37,31.37,0,0,1-6.33,2,19.44,19.44,0,0,1-2.84.32l-.45,0a.34.34,0,0,0,0,.39,11.72,11.72,0,0,0,1.52,2.42,18.46,18.46,0,0,0,1.52,1.67c.18.17.33.35.5.52,0,.14-.1.26-.25.27a4.53,4.53,0,0,1-.52,0Z"/><path class="cls-1" d="M60.25,35.56h2.83a4.53,4.53,0,0,0,.52,0c.15,0,.22-.13.25-.27.53.44,1.05.88,1.59,1.3a13.83,13.83,0,0,0,2,1.36,7.06,7.06,0,0,0,2,.78,3.22,3.22,0,0,0,1.63-.07,2,2,0,0,0,1.4-1.2l.2.13a2.23,2.23,0,0,1-1.47,1.73,5.34,5.34,0,0,1-1.81.39,9.27,9.27,0,0,1-3.9-.59,14,14,0,0,1-5.09-3.27C60.38,35.73,60.32,35.64,60.25,35.56Z"/><path class="cls-1" d="M54.78,35.07a.38.38,0,0,0,.25.35,1.65,1.65,0,0,0,.57.14l-.46.8a26.59,26.59,0,0,0-1.93,3.56.92.92,0,0,1-.29.43.4.4,0,0,1-.44.07A.34.34,0,0,1,52.3,40,4.48,4.48,0,0,1,52.62,39a18.6,18.6,0,0,1,1.18-2.31A14.19,14.19,0,0,1,54.78,35.07Z"/><path class="cls-1" d="M72.73,37.55l-.2-.13c0-.12,0-.23.16-.2s.08.13.08.21S72.74,37.51,72.73,37.55Z"/></svg>